<svg xmlns="http://www.w3.org/2000/svg" version="1.1" xmlns:xlink="http://www.w3.org/1999/xlink" xmlns:svgjs="http://svgjs.com/svgjs" width="1440" height="560" preserveAspectRatio="none" viewBox="0 0 1440 560"><g mask="url(&quot;#SvgjsMask1017&quot;)" fill="none"><rect width="1440" height="560" x="0" y="0" fill="rgba(30, 32, 34, 1)"></rect><path d="M29.14 -10.32L72.44 14.68L72.44 64.68L29.14 89.68L-14.16 64.68L-14.16 14.68zM72.44 64.68L115.75 89.68L115.75 139.68L72.44 164.68L29.14 139.68L29.14 89.68zM29.14 139.68L72.44 164.68L72.44 214.68L29.14 239.68L-14.16 214.68L-14.16 164.68zM72.44 214.68L115.75 239.68L115.75 289.68L72.44 314.68L29.14 289.68L29.14 239.68zM29.14 439.68L72.44 464.68L72.44 514.68L29.14 539.68L-14.16 514.68L-14.16 464.68zM72.44 514.68L115.75 539.68L115.75 589.68L72.44 614.68L29.14 589.68L29.14 539.68zM115.75 289.68L159.05 314.68L159.05 364.68L115.75 389.68L72.44 364.68L72.44 314.68zM159.05 364.68L202.35 389.68L202.35 439.68L159.05 464.68L115.75 439.68L115.75 389.68zM115.75 439.68L159.05 464.68L159.05 514.68L115.75 539.68L72.44 514.68L72.44 464.68zM202.35 139.68L245.65 164.68L245.65 214.68L202.35 239.68L159.05 214.68L159.05 164.68zM202.35 289.68L245.65 314.68L245.65 364.68L202.35 389.68L159.05 364.68L159.05 314.68zM288.95 139.68L332.26 164.68L332.26 214.68L288.95 239.68L245.65 214.68L245.65 164.68zM332.26 214.68L375.56 239.68L375.56 289.68L332.26 314.68L288.95 289.68L288.95 239.68zM288.95 289.68L332.26 314.68L332.26 364.68L288.95 389.68L245.65 364.68L245.65 314.68zM332.26 364.68L375.56 389.68L375.56 439.68L332.26 464.68L288.95 439.68L288.95 389.68zM418.86 514.68L462.17 539.68L462.17 589.68L418.86 614.68L375.56 589.68L375.56 539.68zM462.17 139.68L505.47 164.68L505.47 214.68L462.17 239.68L418.86 214.68L418.86 164.68zM462.17 439.68L505.47 464.68L505.47 514.68L462.17 539.68L418.86 514.68L418.86 464.68zM592.07 214.68L635.38 239.68L635.38 289.68L592.07 314.68L548.77 289.68L548.77 239.68zM548.77 289.68L592.07 314.68L592.07 364.68L548.77 389.68L505.47 364.68L505.47 314.68zM548.77 439.68L592.07 464.68L592.07 514.68L548.77 539.68L505.47 514.68L505.47 464.68zM592.07 514.68L635.38 539.68L635.38 589.68L592.07 614.68L548.77 589.68L548.77 539.68zM678.68 64.68L721.98 89.68L721.98 139.68L678.68 164.68L635.38 139.68L635.38 89.68zM635.38 139.68L678.68 164.68L678.68 214.68L635.38 239.68L592.07 214.68L592.07 164.68zM678.68 214.68L721.98 239.68L721.98 289.68L678.68 314.68L635.38 289.68L635.38 239.68zM635.38 289.68L678.68 314.68L678.68 364.68L635.38 389.68L592.07 364.68L592.07 314.68zM721.98 -10.32L765.28 14.68L765.28 64.68L721.98 89.68L678.68 64.68L678.68 14.68zM721.98 139.68L765.28 164.68L765.28 214.68L721.98 239.68L678.68 214.68L678.68 164.68zM765.28 214.68L808.59 239.68L808.59 289.68L765.28 314.68L721.98 289.68L721.98 239.68zM765.28 364.68L808.59 389.68L808.59 439.68L765.28 464.68L721.98 439.68L721.98 389.68zM765.28 514.68L808.59 539.68L808.59 589.68L765.28 614.68L721.98 589.68L721.98 539.68zM808.59 -10.32L851.89 14.68L851.89 64.68L808.59 89.68L765.28 64.68L765.28 14.68zM808.59 139.68L851.89 164.68L851.89 214.68L808.59 239.68L765.28 214.68L765.28 164.68zM851.89 364.68L895.19 389.68L895.19 439.68L851.89 464.68L808.59 439.68L808.59 389.68zM938.49 364.68L981.8 389.68L981.8 439.68L938.49 464.68L895.19 439.68L895.19 389.68zM895.19 439.68L938.49 464.68L938.49 514.68L895.19 539.68L851.89 514.68L851.89 464.68zM1025.1 64.68L1068.4 89.68L1068.4 139.68L1025.1 164.68L981.8 139.68L981.8 89.68zM1025.1 214.68L1068.4 239.68L1068.4 289.68L1025.1 314.68L981.8 289.68L981.8 239.68zM981.8 289.68L1025.1 314.68L1025.1 364.68L981.8 389.68L938.49 364.68L938.49 314.68zM1025.1 514.68L1068.4 539.68L1068.4 589.68L1025.1 614.68L981.8 589.68L981.8 539.68zM1111.7 64.68L1155.01 89.68L1155.01 139.68L1111.7 164.68L1068.4 139.68L1068.4 89.68zM1068.4 139.68L1111.7 164.68L1111.7 214.68L1068.4 239.68L1025.1 214.68L1025.1 164.68zM1068.4 289.68L1111.7 314.68L1111.7 364.68L1068.4 389.68L1025.1 364.68L1025.1 314.68zM1068.4 439.68L1111.7 464.68L1111.7 514.68L1068.4 539.68L1025.1 514.68L1025.1 464.68zM1111.7 514.68L1155.01 539.68L1155.01 589.68L1111.7 614.68L1068.4 589.68L1068.4 539.68zM1155.01 -10.32L1198.31 14.68L1198.31 64.68L1155.01 89.68L1111.7 64.68L1111.7 14.68zM1155.01 139.68L1198.31 164.68L1198.31 214.68L1155.01 239.68L1111.7 214.68L1111.7 164.68zM1198.31 214.68L1241.61 239.68L1241.61 289.68L1198.31 314.68L1155.01 289.68L1155.01 239.68zM1155.01 439.68L1198.31 464.68L1198.31 514.68L1155.01 539.68L1111.7 514.68L1111.7 464.68zM1284.91 64.68L1328.22 89.68L1328.22 139.68L1284.91 164.68L1241.61 139.68L1241.61 89.68zM1241.61 289.68L1284.91 314.68L1284.91 364.68L1241.61 389.68L1198.31 364.68L1198.31 314.68zM1284.91 364.68L1328.22 389.68L1328.22 439.68L1284.91 464.68L1241.61 439.68L1241.61 389.68zM1328.22 -10.32L1371.52 14.68L1371.52 64.68L1328.22 89.68L1284.91 64.68L1284.91 14.68zM1328.22 139.68L1371.52 164.68L1371.52 214.68L1328.22 239.68L1284.91 214.68L1284.91 164.68zM1458.12 64.68L1501.43 89.68L1501.43 139.68L1458.12 164.68L1414.82 139.68L1414.82 89.68zM1414.82 289.68L1458.12 314.68L1458.12 364.68L1414.82 389.68L1371.52 364.68L1371.52 314.68zM1458.12 514.68L1501.43 539.68L1501.43 589.68L1458.12 614.68L1414.82 589.68L1414.82 539.68z" stroke="rgba(0, 0, 0, 1)" stroke-width="2"></path></g><defs><mask id="SvgjsMask1017"><rect width="1440" height="560" fill="#ffffff"></rect></mask></defs></svg>